<?xml version="1.0" standalone="no"?>
<!DOCTYPE svg PUBLIC "-//W3C//DTD SVG 20010904//EN"
 "http://www.w3.org/TR/2001/REC-SVG-20010904/DTD/svg10.dtd">
<svg version="1.0" xmlns="http://www.w3.org/2000/svg"
 width="598.000000pt" height="137.000000pt" viewBox="0 0 598.000000 137.000000"
 preserveAspectRatio="xMidYMid meet">

<g transform="translate(0.000000,137.000000) scale(0.100000,-0.100000)"
fill="#000000" stroke="none">
<path d="M0 685 l0 -685 2990 0 2990 0 0 685 0 685 -2990 0 -2990 0 0 -685z
m1539 364 c116 -20 198 -81 236 -176 35 -88 34 -270 -1 -362 -23 -61 -84 -124
-147 -152 -46 -21 -67 -24 -182 -24 -116 0 -135 3 -173 23 -105 56 -156 133
-170 259 -9 86 3 210 28 267 57 134 215 198 409 165z m-949 -195 l95 -196 94
196 94 196 89 0 88 0 0 -355 0 -355 -90 0 -90 0 0 198 -1 197 -66 -137 -66
-138 -54 0 -54 0 -64 133 -63 132 -1 -192 -1 -193 -95 0 -95 0 0 355 0 355 93
0 92 -1 95 -195z m1480 -45 c47 -132 88 -243 91 -245 4 -2 32 70 64 159 31 89
71 199 87 245 l30 82 94 0 c52 0 94 -2 94 -4 0 -2 -60 -160 -134 -352 l-134
-349 -99 -3 -98 -3 -89 233 c-49 128 -111 288 -137 356 l-47 122 96 0 97 0 85
-241z m730 -114 l0 -355 -95 0 -95 0 0 355 0 355 95 0 95 0 0 -355z m630 280
l0 -75 -175 0 -175 0 0 -70 0 -70 155 0 155 0 0 -70 0 -70 -155 0 -155 0 0
-70 0 -70 175 0 175 0 0 -70 0 -70 -265 0 -265 0 0 355 0 355 265 0 265 0 0
-75z m310 -65 l0 -140 135 0 135 0 0 140 0 140 90 0 90 0 0 -355 0 -355 -90 0
-90 0 0 140 0 140 -135 0 -135 0 0 -140 0 -140 -90 0 -90 0 0 355 0 355 90 0
90 0 0 -140z m740 -94 c0 -129 4 -246 10 -260 22 -59 140 -87 210 -51 56 29
60 50 60 310 l0 235 95 0 95 0 0 -207 c0 -115 -5 -238 -10 -276 -23 -154 -124
-229 -315 -230 -156 -2 -252 45 -305 149 -24 48 -25 55 -28 307 l-3 257 95 0
96 0 0 -234z m1056 215 c104 -47 136 -187 66 -287 -29 -41 -30 -43 -11 -49 11
-4 31 -24 45 -45 47 -70 31 -193 -32 -252 -51 -47 -74 -51 -321 -56 l-233 -4
0 356 0 356 223 0 c194 0 227 -3 263 -19z"/>
<path d="M1364 881 c-59 -27 -78 -72 -79 -186 0 -148 48 -210 165 -210 113 0
163 61 164 200 1 112 -22 171 -78 196 -52 24 -120 24 -172 0z"/>
<path d="M5230 845 l0 -75 88 0 c107 0 132 13 132 68 0 66 -27 82 -139 82
l-81 0 0 -75z"/>
<path d="M5230 555 l0 -85 83 1 c108 0 149 14 160 56 24 82 -18 113 -153 113
l-90 0 0 -85z"/>
</g>
</svg>
